<?xml version="1.0" standalone="no"?>
<!DOCTYPE svg PUBLIC "-//W3C//DTD SVG 20010904//EN"
 "http://www.w3.org/TR/2001/REC-SVG-20010904/DTD/svg10.dtd">
<svg version="1.0" xmlns="http://www.w3.org/2000/svg"
 width="2048.000000pt" height="2048.000000pt" viewBox="0 0 2048.000000 2048.000000"
 preserveAspectRatio="xMidYMid meet">
<metadata>
Created by potrace 1.11, written by Peter Selinger 2001-2013
</metadata>
<g transform="translate(0.000000,2048.000000) scale(0.100000,-0.100000)"
fill="#000000" stroke="none">
<path d="M8910 14617 c-410 -646 -4028 -6332 -4196 -6594 l-34 -53 1274 0
1274 0 203 343 c297 502 369 626 376 642 4 13 -81 15 -661 15 -366 0 -666 2
-666 5 0 3 120 205 266 448 388 642 660 1094 1072 1777 201 333 463 767 582
965 119 198 311 515 425 705 114 190 289 479 387 643 99 163 183 297 187 297
4 0 198 -256 431 -569 362 -486 426 -567 436 -553 76 110 454 717 452 726 -4
17 -1262 2045 -1268 2045 -3 0 -246 -379 -540 -842z"/>
<path d="M11149 12983 c-365 -499 -663 -915 -663 -923 0 -16 615 -1059 624
-1059 3 -1 151 281 330 625 179 345 329 626 334 626 5 0 103 -177 218 -394
115 -216 364 -683 553 -1038 360 -677 699 -1316 1464 -2752 253 -477 461 -872
461 -878 0 -7 -207 -10 -629 -10 l-628 0 184 -472 c101 -260 190 -489 197
-508 l14 -35 1105 -3 1105 -2 -183 352 c-100 194 -389 754 -642 1243 -438 847
-1019 1971 -2503 4840 -364 704 -665 1284 -669 1288 -5 4 -307 -401 -672 -900z"/>
<path d="M9170 12180 c-124 -187 -315 -476 -425 -643 -974 -1472 -1295 -1958
-1295 -1963 0 -2 188 -3 417 -2 l417 3 470 672 c259 370 473 672 476 672 5 0
1047 -1396 1165 -1559 l50 -70 483 0 482 0 -63 103 c-70 112 -1059 1705 -1525
2457 -162 261 -322 519 -355 573 -33 53 -62 97 -66 97 -3 0 -107 -153 -231
-340z"/>
<path d="M11869 10972 c-37 -48 -155 -201 -263 -341 -134 -173 -195 -259 -191
-270 3 -9 204 -357 446 -773 241 -416 439 -759 439 -762 0 -3 -415 -6 -923 -6
l-923 0 -211 -422 -211 -423 1786 -3 c982 -1 1787 0 1789 2 4 4 -1652 3065
-1665 3078 -4 4 -37 -32 -73 -80z"/>
<path d="M9208 9934 c-14 -21 -469 -757 -1012 -1634 -544 -877 -1023 -1651
-1066 -1720 l-79 -125 2171 -3 c1194 -1 2173 0 2175 2 4 4 -617 888 -641 913
-8 8 -270 22 -896 49 -487 20 -886 37 -888 39 -1 1 209 348 469 771 259 423
471 772 472 775 2 4 -586 845 -666 953 -14 19 -16 18 -39 -20z"/>
<path d="M5327 6099 c-356 -661 -646 -1203 -644 -1205 2 -2 2013 -3 4469 -2
l4466 3 -419 950 c-231 523 -469 1064 -531 1203 l-111 252 -508 0 -508 0 39
-92 c21 -51 135 -324 254 -607 119 -283 215 -516 213 -518 -2 -1 -1334 -2
-2959 -1 l-2956 3 354 590 c195 325 359 598 365 608 9 16 -14 17 -433 17
l-443 0 -648 -1201z"/>
</g>
</svg>
